<?xml version="1.0" encoding="utf-8"?>
<!-- Generator: Adobe Illustrator 17.0.0, SVG Export Plug-In . SVG Version: 6.00 Build 0)  -->
<!DOCTYPE svg PUBLIC "-//W3C//DTD SVG 1.1//EN" "http://www.w3.org/Graphics/SVG/1.1/DTD/svg11.dtd">
<svg version="1.1" id="Layer_1" xmlns="http://www.w3.org/2000/svg" xmlns:xlink="http://www.w3.org/1999/xlink" x="0px" y="0px"
	 width="245.667px" height="78.667px" viewBox="0 0 245.667 78.667" enable-background="new 0 0 245.667 78.667"
	 xml:space="preserve">
<g>
	<path fill="#5D96A3" d="M103.688,17.983h14.29c7.614,0,11.477,4.359,11.477,10.042c0,3.642-2.207,6.787-5.738,7.67
		c4.414,1.104,7.339,3.807,7.339,9.049c0,6.124-4.47,10.759-12.194,10.759h-15.173V17.983z M117.04,32.825
		c3.146,0,4.801-1.49,4.801-4.028s-1.379-4.027-4.414-4.027h-6.014v8.056H117.04z M118.53,48.716c2.814,0,4.745-1.876,4.745-4.69
		c0-2.759-1.986-4.635-5.187-4.635h-6.676v9.325H118.53z"/>
	<path fill="#5D96A3" d="M132.204,23.39c0-2.703,2.207-4.635,4.745-4.635s4.69,1.932,4.69,4.635c0,2.759-2.152,4.69-4.69,4.69
		S132.204,26.149,132.204,23.39z M133.197,31.997h7.448v23.505h-7.448V31.997z"/>
	<path fill="#5D96A3" d="M176.123,48.771c-0.497,0.331-1.38,0.993-2.593,0.993c-1.159,0-1.932-0.496-1.932-2.869v-8.718h6.014v-6.18
		h-6.014V23.61h-7.394v8.387h-10.538V23.61h-7.394v8.387h-3.476v6.18h3.476v8.497c0,7.062,3.421,9.436,8.166,9.436
		c3.421,0,5.407-1.214,6.565-2.152l-2.813-5.187c-0.497,0.331-1.38,0.993-2.593,0.993c-1.159,0-1.932-0.496-1.932-2.869v-8.718
		h10.538v8.497c0,7.062,3.421,9.436,8.166,9.436c3.421,0,5.407-1.214,6.565-2.152L176.123,48.771z"/>
	<path fill="#5D96A3" d="M201.492,53.497 M201.492,53.497c-2.082,1.48-4.748,2.502-8.815,2.502c-8.387,0-13.794-5.076-13.794-12.305
		c0-7.117,5.683-12.193,12.966-12.193c8.442,0,13.021,6.29,12.471,14.511h-17.822c0.717,2.428,2.703,3.808,6.069,3.808
		c2.704,0,4.745-1.049,5.903-1.876L201.492,53.497z M196.815,41.708c-0.332-2.593-1.986-4.138-4.911-4.138s-4.911,1.324-5.518,4.138
		H196.815z"/>
	<path fill="#5D96A3" d="M206.635,31.997h7.449l-0.11,4.249c1.71-3.862,4.47-4.745,6.897-4.745c1.545,0,2.703,0.441,3.641,0.938
		l-2.372,6.787c-0.938-0.441-1.821-0.718-2.869-0.718c-3.366,0-5.187,1.545-5.187,6.566v10.428h-7.449V31.997z"/>
	<path fill="#5D96A3" d="M223.245,51.529l4.359-3.862c1.6,1.545,3.641,2.483,5.848,2.483c2.428,0,3.201-0.441,3.201-1.435
		c0-1.27-1.49-1.27-5.297-2.263c-3.201-0.827-6.787-2.593-6.787-7.504c0-5.297,4.083-7.448,9.104-7.448
		c3.863,0,6.621,1.269,8.553,3.255l-3.973,4.249c-1.104-0.938-2.759-1.766-4.524-1.766c-1.71,0-2.538,0.441-2.538,1.379
		c0,1.324,1.49,1.49,4.689,2.207c3.422,0.772,7.725,2.373,7.725,7.339c0,4.304-2.262,7.835-9.655,7.835
		C228.487,55.999,225.286,53.957,223.245,51.529z"/>
</g>
<g>
	<path fill="#FFFFFF" d="M62.728,49.502c-8.461,0-15.345-6.884-15.345-15.345c0-8.907,9.284-17.839,15.361-22.439
		c6.063,4.557,15.33,13.443,15.33,22.439C78.074,42.618,71.189,49.502,62.728,49.502z"/>
	<g>
		<path fill="#A8BA6E" d="M62.741,19.493c0.805,0.718,1.637,1.503,2.46,2.346c4.432,4.534,6.872,8.909,6.872,12.318
			c0,5.153-4.192,9.345-9.345,9.345s-9.345-4.192-9.345-9.345C53.383,29.608,57.874,23.904,62.741,19.493 M62.728,4.422
			c0,0-21.345,13.289-21.345,29.735c0,11.789,9.557,21.345,21.345,21.345s21.345-9.557,21.345-21.345
			C84.074,17.554,62.728,4.422,62.728,4.422L62.728,4.422z"/>
	</g>
</g>
<g>
	<path fill="#FFFFFF" d="M24.091,49.502c-8.461,0-15.346-6.884-15.346-15.345c0-6.452,4.857-12.702,8.932-16.808
		c2.338-2.356,4.668-4.273,6.445-5.62c6.063,4.561,15.314,13.439,15.314,22.428C39.436,42.618,32.552,49.502,24.091,49.502z"/>
	<g>
		<path fill="#F1605A" d="M24.104,19.493c0.805,0.718,1.637,1.503,2.46,2.346c4.432,4.534,6.872,8.909,6.872,12.318
			c0,5.153-4.192,9.345-9.345,9.345s-9.345-4.192-9.345-9.345C14.745,29.608,19.236,23.904,24.104,19.493 M24.091,4.422
			c0,0-21.345,13.289-21.345,29.735c0,11.789,9.557,21.345,21.345,21.345s21.345-9.557,21.345-21.345
			C45.436,17.554,24.091,4.422,24.091,4.422L24.091,4.422z"/>
	</g>
</g>
<g>
	<path fill="#FFFFFF" d="M43.383,70.31c-8.461,0-15.345-6.884-15.345-15.346c0-8.907,9.284-17.839,15.361-22.44
		c6.063,4.557,15.329,13.444,15.329,22.44C58.728,63.426,51.844,70.31,43.383,70.31z"/>
	<g>
		<path fill="#FFC549" d="M43.396,40.3c0.805,0.718,1.637,1.503,2.46,2.346c4.432,4.534,6.872,8.909,6.872,12.318
			c0,5.153-4.192,9.345-9.345,9.345s-9.345-4.192-9.345-9.345C34.037,50.415,38.528,44.711,43.396,40.3 M43.383,25.229
			c0,0-21.345,13.289-21.345,29.735c0,11.789,9.557,21.345,21.345,21.345s21.345-9.557,21.345-21.345
			C64.728,38.361,43.383,25.229,43.383,25.229L43.383,25.229z"/>
	</g>
</g>
</svg>
